<?xml version="1.0" standalone="no"?>
<!DOCTYPE svg PUBLIC "-//W3C//DTD SVG 20010904//EN"
 "http://www.w3.org/TR/2001/REC-SVG-20010904/DTD/svg10.dtd">
<svg version="1.0" xmlns="http://www.w3.org/2000/svg"
 width="510.000000pt" height="510.000000pt" viewBox="0 0 510.000000 510.000000"
 preserveAspectRatio="xMidYMid meet">

<g transform="translate(0.000000,510.000000) scale(0.100000,-0.100000)"
fill="#000000" stroke="none">
<path d="M971 3310 c-112 -44 -205 -80 -207 -80 -3 0 -13 -15 -24 -32 -19 -32
-20 -52 -20 -585 0 -334 4 -562 10 -577 14 -37 51 -56 262 -135 125 -47 203
-71 231 -71 89 0 667 77 683 91 43 36 44 49 44 689 0 657 0 660 -52 694 -22
14 -595 86 -685 86 -23 0 -117 -31 -242 -80z m569 -45 c124 -14 244 -28 268
-31 l42 -6 0 -619 c0 -491 -3 -619 -13 -619 -7 0 -145 -16 -307 -35 -162 -19
-296 -35 -297 -35 -2 0 -3 311 -3 691 l0 690 43 -6 c23 -3 143 -17 267 -30z
m-410 -656 c0 -525 -3 -660 -12 -656 -7 2 -74 28 -148 57 -74 28 -139 56 -145
61 -15 15 -16 1067 -1 1076 22 14 281 122 294 122 9 1 12 -138 12 -660z"/>
<path d="M1330 3092 c0 -49 -15 -44 226 -67 212 -20 194 -22 194 23 l0 39
-162 17 c-90 9 -184 20 -210 23 l-48 6 0 -41z"/>
<path d="M1330 2920 c0 -25 5 -40 13 -41 6 0 101 -10 210 -23 l197 -22 0 43
c0 34 -4 43 -17 43 -10 0 -99 9 -198 20 -99 11 -186 20 -192 20 -8 0 -13 -15
-13 -40z"/>
<path d="M1500 2390 c-22 -22 -26 -70 -9 -101 24 -46 105 -42 128 7 16 36 14
58 -10 88 -26 33 -79 36 -109 6z"/>
<path d="M2160 2630 l0 -300 55 0 55 0 0 130 0 130 115 0 114 0 3 -127 3 -128
55 0 55 0 3 298 2 298 -57 -3 -58 -3 -3 -117 -3 -118 -114 0 -115 0 0 120 0
120 -55 0 -55 0 0 -300z"/>
<path d="M3545 2919 c-3 -8 -4 -142 -3 -299 l3 -285 52 -3 52 -3 3 103 3 103
90 5 c71 4 98 10 128 29 97 60 111 228 25 308 -39 36 -77 45 -215 51 -108 4
-134 2 -138 -9z m273 -112 c26 -24 37 -82 21 -119 -16 -40 -57 -58 -129 -58
l-60 0 0 98 c0 54 2 101 4 103 3 2 36 2 74 -1 48 -3 76 -11 90 -23z"/>
<path d="M4190 2921 c-76 -23 -127 -70 -162 -146 -18 -41 -22 -68 -23 -151 0
-92 2 -105 30 -159 59 -115 166 -160 309 -130 39 8 73 18 77 22 5 5 3 28 -3
51 -9 38 -14 43 -32 37 -49 -14 -125 -17 -159 -6 -51 17 -93 69 -106 132 -21
98 5 183 72 233 23 17 41 21 95 19 37 -1 78 -4 91 -5 19 -3 26 4 37 36 17 47
13 50 -59 66 -55 11 -130 12 -167 1z"/>
<path d="M2832 2769 c-118 -22 -168 -113 -151 -272 7 -65 28 -100 78 -134 61
-41 180 -52 256 -23 19 7 21 13 16 47 -6 31 -11 37 -26 35 -11 -2 -51 -5 -88
-5 -66 -2 -70 -1 -98 31 -16 18 -29 41 -29 52 0 19 7 20 136 20 l137 0 -5 70
c-10 136 -95 204 -226 179z m103 -104 c14 -13 25 -36 25 -50 0 -25 -1 -25 -85
-25 -84 0 -85 0 -85 25 0 67 96 100 145 50z"/>
<path d="M3064 2753 c4 -10 43 -112 87 -226 77 -201 80 -209 64 -233 -19 -29
-60 -47 -92 -41 -20 4 -23 0 -23 -29 0 -18 -3 -39 -6 -48 -8 -21 51 -31 103
-17 55 15 87 42 113 98 26 55 170 479 170 500 0 11 -12 13 -51 11 l-52 -3 -24
-85 c-53 -186 -64 -220 -73 -220 -6 0 -10 6 -10 13 0 7 -20 76 -44 153 l-44
139 -62 3 c-57 3 -62 1 -56 -15z"/>
</g>
</svg>
